<svg xmlns="http://www.w3.org/2000/svg" viewBox="0 0 1203.04 193.13"><defs><style>.cls-1{fill:#2a2e3c;}.cls-2{fill:#c1d301;}.cls-3{fill:#f6511d;}.cls-4{fill:#fff;}.cls-5{fill:#595e71;}</style></defs><g id="Layer_2" data-name="Layer 2"><g id="Layer_1-2" data-name="Layer 1"><rect class="cls-1" width="193.13" height="193.13" rx="16.92"/><rect class="cls-2" x="27.82" y="103.96" width="28.16" height="61.34" rx="14.08"/><rect class="cls-3" x="64.26" y="49.26" width="28.16" height="81.01" rx="14.08"/><rect class="cls-2" x="100.71" y="76.19" width="28.16" height="65.35" rx="14.08"/><rect class="cls-3" x="137.15" y="27.82" width="28.16" height="83.02" rx="14.08"/><path class="cls-4" d="M27.82,51.8a2.1,2.1,0,0,1-2.1-2.09V27.83a2.1,2.1,0,0,1,2.1-2.09H49.69a2.1,2.1,0,1,1,0,4.19H29.91V49.71A2.1,2.1,0,0,1,27.82,51.8Z"/><path class="cls-4" d="M165.31,167.4H143.44a2.1,2.1,0,1,1,0-4.19h19.78V143.43a2.1,2.1,0,1,1,4.19,0V165.3A2.1,2.1,0,0,1,165.31,167.4Z"/><path class="cls-4" d="M155.15,64h-7.84a1.39,1.39,0,0,0-1.4,1.4v7.84a1.38,1.38,0,0,0,1.4,1.39h1.59c-1,12-5.59,21.69-13.13,27.54a23.75,23.75,0,0,1-20.45,4.65c-6.12-1.56-9.46-4.94-13-8.51-5.2-5.24-10.57-10.64-23.93-10.64-17.53,0-36.26,13.07-38.34,41.62v0H38a1.38,1.38,0,0,0-1.39,1.4v7.83A1.38,1.38,0,0,0,38,140h7.84a1.39,1.39,0,0,0,1.4-1.4v-7.83a1.39,1.39,0,0,0-1.4-1.4H44.21v0c1.95-25.81,18.11-37.45,34.14-37.45,11.61,0,16.16,4.58,21,9.42,3.8,3.84,7.74,7.78,15,9.63a27.89,27.89,0,0,0,24.06-5.4c8.55-6.66,13.72-17.49,14.76-30.86h2.05a1.37,1.37,0,0,0,1.39-1.39V65.41A1.38,1.38,0,0,0,155.15,64Z"/><path class="cls-4" d="M153.26,71.88c0,.94-.06,1.85-.16,2.76-1,13.37-6.21,24.2-14.76,30.86a27.89,27.89,0,0,1-24.06,5.4c-7.22-1.85-11.16-5.79-15-9.63-4.81-4.84-9.36-9.42-21-9.42-16,0-32.19,11.64-34.14,37.45-.07.91-.13,1.86-.13,2.8h-4.2c0-.94.07-1.89.13-2.8,2.08-28.55,20.81-41.62,38.34-41.62,13.36,0,18.73,5.4,23.93,10.64,3.57,3.57,6.92,7,13,8.51a23.75,23.75,0,0,0,20.45-4.65c7.54-5.85,12.13-15.54,13.13-27.54.1-.91.13-1.85.17-2.76Z"/><rect class="cls-4" x="145.91" y="64.01" width="10.63" height="10.63" rx="1.4"/><rect class="cls-3" x="148.68" y="66.81" width="5.07" height="5.07"/><rect class="cls-4" x="36.59" y="129.32" width="10.63" height="10.63" rx="1.4"/><rect class="cls-2" x="39.35" y="132.11" width="5.07" height="5.07"/><path class="cls-5" d="M338.53,130.92H267.39l-12.61,24.89H226L288.41,38.1h29.43l62.39,117.71H351.14Zm-11.27-21.86L302.87,61.13l-24.38,47.93Z"/><path class="cls-5" d="M503.16,117.13l24.55,12.28c-11.1,16.65-33.8,30.1-64.58,30.1-44.22,0-73-23.37-73-62.56S418.91,34.4,464.31,34.4c29.6,0,52.3,13.62,63.06,29.93L502.65,76.61c-8.4-13.12-21.19-19-38.67-19-27.92,0-46.42,13.46-46.42,39.35s18.5,39.36,46.42,39.36C481.46,136.31,494.41,130.59,503.16,117.13Z"/><path class="cls-5" d="M677.54,133.28v22.53H556.29V38.1H675.86V60.63H583V84.85h77.53v22.53H583v25.9Z"/><path class="cls-5" d="M702.26,143.87c0-7.9,6.55-14.12,16-14.12,9.25,0,15.81,6.22,15.81,14.12,0,8.07-6.56,14-15.81,14C708.81,157.83,702.26,151.94,702.26,143.87Z"/><path class="cls-5" d="M892.28,120.16c0,23.21-22,39.35-63.74,39.35-29.76,0-54-8.41-72-23.71L772,117.47C786.5,130.76,805.17,137,829.22,137c23.88,0,36-4.54,36-14.3S853.1,110.24,826,107.88C792.39,105,761.11,97.63,761.11,72.4c0-24.55,26.23-38,62.56-38,25.73,0,47.93,6.39,62.89,18l-14.8,18.67c-12.94-9.93-28.92-14-48.09-14.13-16-.17-35.49,2.69-35.49,13.45,0,10.09,16.82,11.1,40.2,13C865.88,86.36,892.28,94.26,892.28,120.16Z"/><path class="cls-5" d="M931.29,38.1l44.4,91,44.22-91H1049L989.64,155.81H961.22L901.86,38.1Z"/><path class="cls-5" d="M1203,131.93c-11.77,16-35,27.58-66.93,27.58-47.25,0-76-23.2-76-62.56s28.76-62.55,76-62.55c28.93,0,49.44,10.93,61.21,22.36l-21,15.31c-10.26-10.09-22.2-14.8-40-14.8-30.78,0-48.77,13.45-48.77,39.68s18.5,39.69,49.78,39.69c17.66,0,32.12-3.87,40.53-14V111.25h-44.4V89.39H1203Z"/></g></g></svg>