<svg xmlns="http://www.w3.org/2000/svg" viewBox="0 0 199.5 199.49"><defs><style>.cls-1{fill:#2a2e3c;}.cls-2{fill:#c1d301;}.cls-3{fill:#f6511d;}.cls-4{fill:#fff;}</style></defs><g id="Layer_2" data-name="Layer 2"><g id="Layer_1-2" data-name="Layer 1"><rect class="cls-1" width="199.5" height="199.49" rx="17.48"/><rect class="cls-2" x="28.74" y="107.39" width="29.09" height="63.37" rx="14.54"/><rect class="cls-3" x="66.38" y="50.88" width="29.09" height="83.68" rx="14.54"/><rect class="cls-2" x="104.03" y="78.7" width="29.09" height="67.51" rx="14.54"/><rect class="cls-3" x="141.67" y="28.74" width="29.09" height="85.75" rx="14.54"/><path class="cls-4" d="M28.73,53.51a2.16,2.16,0,0,1-2.16-2.16V28.75a2.16,2.16,0,0,1,2.16-2.16h22.6a2.17,2.17,0,0,1,0,4.33H30.9V51.35A2.17,2.17,0,0,1,28.73,53.51Z"/><path class="cls-4" d="M170.76,172.92H148.17a2.17,2.17,0,1,1,0-4.33H168.6V148.16a2.17,2.17,0,1,1,4.33,0v22.59A2.17,2.17,0,0,1,170.76,172.92Z"/><path class="cls-4" d="M160.26,66.12h-8.09a1.44,1.44,0,0,0-1.45,1.45v8.09a1.44,1.44,0,0,0,1.45,1.45h1.64c-1,12.39-5.77,22.4-13.57,28.44a24.57,24.57,0,0,1-21.12,4.81c-6.32-1.62-9.77-5.11-13.47-8.8-5.37-5.41-10.92-11-24.72-11-18.1,0-37.45,13.51-39.6,43v0H39.24A1.44,1.44,0,0,0,37.79,135v8.09a1.43,1.43,0,0,0,1.45,1.44h8.09a1.42,1.42,0,0,0,1.44-1.44V135a1.43,1.43,0,0,0-1.44-1.45H45.66v0c2-26.66,18.71-38.69,35.27-38.69,12,0,16.69,4.74,21.66,9.74,3.93,4,8,8,15.45,9.94A28.82,28.82,0,0,0,142.9,109c8.83-6.89,14.17-18.07,15.25-31.87h2.11a1.44,1.44,0,0,0,1.45-1.45V67.57A1.44,1.44,0,0,0,160.26,66.12Z"/><path class="cls-4" d="M158.31,74.25c0,1-.06,1.92-.16,2.86-1.08,13.8-6.42,25-15.25,31.87A28.82,28.82,0,0,1,118,114.55c-7.45-1.91-11.52-6-15.45-9.94-5-5-9.67-9.74-21.66-9.74-16.56,0-33.25,12-35.27,38.69-.06.95-.13,1.92-.13,2.89H41.2c0-1,.07-1.94.13-2.89,2.15-29.48,21.5-43,39.6-43,13.8,0,19.35,5.58,24.72,11,3.69,3.69,7.15,7.18,13.47,8.8a24.57,24.57,0,0,0,21.12-4.81c7.8-6,12.53-16,13.57-28.44.1-.94.14-1.92.17-2.86Z"/><rect class="cls-4" x="150.72" y="66.12" width="10.98" height="10.98" rx="1.44"/><rect class="cls-3" x="153.58" y="69.01" width="5.24" height="5.24"/><rect class="cls-4" x="37.79" y="133.58" width="10.98" height="10.98" rx="1.44"/><rect class="cls-2" x="40.65" y="136.47" width="5.24" height="5.24"/></g></g></svg>