<svg xmlns="http://www.w3.org/2000/svg" viewBox="0 0 1220.02 219.04"><defs><style>.cls-1{fill:#2a2e3c;}.cls-2{fill:#c1d301;}.cls-3{fill:#f6511d;}.cls-4{fill:#fff;}.cls-5{font-size:168.16px;fill:#595e71;font-family:Termina-Demi, Termina;font-weight:300;letter-spacing:0.01em;}.cls-6{letter-spacing:0.05em;}.cls-7{letter-spacing:0.02em;}.cls-8{letter-spacing:0.02em;}.cls-9{letter-spacing:0.05em;}</style></defs><g id="Layer_2" data-name="Layer 2"><g id="Layer_1-2" data-name="Layer 1"><rect class="cls-1" width="193.13" height="193.13" rx="16.92"/><rect class="cls-2" x="27.82" y="103.96" width="28.16" height="61.34" rx="14.08"/><rect class="cls-3" x="64.26" y="49.26" width="28.16" height="81.01" rx="14.08"/><rect class="cls-2" x="100.71" y="76.19" width="28.16" height="65.35" rx="14.08"/><rect class="cls-3" x="137.15" y="27.82" width="28.16" height="83.02" rx="14.08"/><path class="cls-4" d="M27.82,51.8a2.1,2.1,0,0,1-2.1-2.09V27.83a2.1,2.1,0,0,1,2.1-2.09H49.69a2.1,2.1,0,1,1,0,4.19H29.91V49.71A2.1,2.1,0,0,1,27.82,51.8Z"/><path class="cls-4" d="M165.31,167.4H143.44a2.1,2.1,0,1,1,0-4.19h19.78V143.43a2.1,2.1,0,1,1,4.19,0V165.3A2.1,2.1,0,0,1,165.31,167.4Z"/><path class="cls-4" d="M155.15,64h-7.84a1.39,1.39,0,0,0-1.4,1.4v7.84a1.38,1.38,0,0,0,1.4,1.39h1.59c-1,12-5.59,21.69-13.13,27.54a23.75,23.75,0,0,1-20.45,4.65c-6.12-1.56-9.46-4.94-13-8.51-5.2-5.24-10.57-10.64-23.93-10.64-17.53,0-36.26,13.07-38.34,41.62v0H38a1.38,1.38,0,0,0-1.39,1.4v7.83A1.38,1.38,0,0,0,38,140h7.84a1.39,1.39,0,0,0,1.4-1.4v-7.83a1.39,1.39,0,0,0-1.4-1.4H44.21v0c1.95-25.81,18.11-37.45,34.14-37.45,11.61,0,16.16,4.58,21,9.42,3.8,3.84,7.74,7.78,15,9.63a27.89,27.89,0,0,0,24.06-5.4c8.55-6.66,13.72-17.49,14.76-30.86h2.05a1.37,1.37,0,0,0,1.39-1.39V65.41A1.38,1.38,0,0,0,155.15,64Z"/><path class="cls-4" d="M153.26,71.88c0,.94-.06,1.85-.16,2.76-1,13.37-6.21,24.2-14.76,30.86a27.89,27.89,0,0,1-24.06,5.4c-7.22-1.85-11.16-5.79-15-9.63-4.81-4.84-9.36-9.42-21-9.42-16,0-32.19,11.64-34.14,37.45-.07.91-.13,1.86-.13,2.8h-4.2c0-.94.07-1.89.13-2.8,2.08-28.55,20.81-41.62,38.34-41.62,13.36,0,18.73,5.4,23.93,10.64,3.57,3.57,6.92,7,13,8.51a23.75,23.75,0,0,0,20.45-4.65c7.54-5.85,12.13-15.54,13.13-27.54.1-.91.13-1.85.17-2.76Z"/><rect class="cls-4" x="145.91" y="64.01" width="10.63" height="10.63" rx="1.4"/><rect class="cls-3" x="148.68" y="66.81" width="5.07" height="5.07"/><rect class="cls-4" x="36.59" y="129.32" width="10.63" height="10.63" rx="1.4"/><rect class="cls-2" x="39.35" y="132.11" width="5.07" height="5.07"/><text class="cls-5" transform="translate(225.69 155.81)">A<tspan class="cls-6" x="156.22" y="0">CE.</tspan><tspan class="cls-7" x="525.84" y="0">S</tspan><tspan class="cls-8" x="675.84" y="0">V</tspan><tspan class="cls-9" x="826.17" y="0">G</tspan></text></g></g></svg>