<svg xmlns="http://www.w3.org/2000/svg" viewBox="0 0 199.54 199.5"><defs><style>.cls-1{fill:#c1d301;}.cls-2{fill:#f6511d;}.cls-3{fill:#fff;}</style></defs><g id="Layer_2" data-name="Layer 2"><g id="Layer_1-2" data-name="Layer 1"><rect class="cls-1" x="2.96" y="110.16" width="39.66" height="86.39" rx="19.83"/><rect class="cls-2" x="54.28" y="33.12" width="39.66" height="114.09" rx="19.83"/><rect class="cls-1" x="105.6" y="71.05" width="39.66" height="92.04" rx="19.83"/><rect class="cls-2" x="156.93" y="2.93" width="39.66" height="116.92" rx="19.83"/><path class="cls-3" d="M3,36.7a3,3,0,0,1-2.95-3V3A3,3,0,0,1,3,0H33.76a3,3,0,1,1,0,5.9H5.9V33.75A3,3,0,0,1,3,36.7Z"/><path class="cls-3" d="M196.59,199.5h-30.8a3,3,0,0,1,0-5.9h27.85V165.75a2.95,2.95,0,0,1,5.9,0v30.8A3,3,0,0,1,196.59,199.5Z"/><path class="cls-3" d="M182.28,53.9h-11a2,2,0,0,0-2,2v11a2,2,0,0,0,2,2h2.24c-1.42,16.89-7.87,30.54-18.5,38.78-8.56,6.64-19,9-28.8,6.55-8.61-2.2-13.32-7-18.36-12-7.33-7.37-14.88-15-33.7-15-24.69,0-51.06,18.41-54,58.61v0H17.27a2,2,0,0,0-2,2v11a2,2,0,0,0,2,2h11a2,2,0,0,0,2-2v-11a2,2,0,0,0-2-2H26v0C28.78,109.49,51.54,93.1,74.12,93.1c16.34,0,22.75,6.46,29.53,13.28,5.36,5.4,10.9,10.94,21.07,13.55,11.53,2.93,23.85.19,33.88-7.6,12-9.38,19.33-24.63,20.79-43.45h2.89a2,2,0,0,0,2-2v-11A2,2,0,0,0,182.28,53.9Z"/><path class="cls-3" d="M179.62,65c-.05,1.33-.09,2.61-.23,3.9-1.46,18.82-8.75,34.07-20.79,43.45-10,7.79-22.34,10.53-33.88,7.6-10.17-2.61-15.71-8.15-21.07-13.55C96.87,99.56,90.46,93.1,74.12,93.1c-22.58,0-45.34,16.39-48.09,52.75-.09,1.28-.18,2.61-.18,3.94H19.94c0-1.33.1-2.66.19-3.94,2.93-40.2,29.3-58.61,54-58.61,18.82,0,26.37,7.6,33.7,15,5,5,9.75,9.8,18.36,12,9.75,2.47,20.24.09,28.8-6.55,10.63-8.24,17.08-21.89,18.5-38.78.14-1.29.19-2.61.23-3.9Z"/><rect class="cls-3" x="169.27" y="53.9" width="14.97" height="14.97" rx="1.97"/><rect class="cls-2" x="173.16" y="57.84" width="7.14" height="7.14"/><rect class="cls-3" x="15.3" y="145.87" width="14.97" height="14.97" rx="1.97"/><rect class="cls-1" x="19.19" y="149.81" width="7.14" height="7.14"/></g></g></svg>